<svg width="283" height="64" viewBox="0 0 1236.54 276.59" fill="none" 
    xmlns="http://www.w3.org/2000/svg">
    <path id="Layer_1-2" 
fill="#FFFFFF"
d="M77.59,109.59c-15.51,1.98-31.09,3.39-46.69,4.41-.08,20.86-.09,41.71-.09,62.57-10.25,.41-20.54,.62-30.81,.63C.35,127.32,.69,77.44,1.05,27.56c10.26-.03,20.55-.23,30.81-.63-.28,19.22-.55,38.44-.75,57.66,15.61-1.01,31.2-2.4,46.72-4.35,.28-18.81,.7-37.61,1.2-56.41,9.96-.92,19.93-2.03,29.86-3.28-1.75,49.74-2.01,99.41-1.22,149.17-9.89,1.37-19.83,2.56-29.76,3.55-.22-21.23-.35-42.47-.32-63.7v.02Zm93.94,52.19c-33.88,6.08-48.05-30.28-49.17-56.76-1.28-30.56,17.21-61.94,49.39-67.37,33.03-5.57,45.02,22.47,46.75,50.07,0,3.44-.19,7.15-.52,10.93-22.36,2.51-44.45,6.2-66.6,10.16,.12,10.2,6.25,22.86,18.34,20.76,8.17-1.42,12.75-7.62,15.08-14.74,10.45-1.7,21-3.15,31.53-4.2-4.16,23.46-20.25,46.74-44.8,51.15h0Zm-19.93-73.53c12.18-2.2,24.37-4.35,36.6-6.24,1.26-9.51-8.26-18.88-17.69-17.03-11.59,2.27-15.87,13.37-18.92,23.28h0ZM238.65,.12c10.35-.22,20.77-.13,31.11,.24-3.98,51-4.76,101.42-2.96,152.56-10.28-.24-20.64-.14-30.92,.31-1.86-51.33-1.22-101.91,2.76-153.11h0Zm116.8,40.71c32.55,4.92,45.74,37.23,45.49,64.54-.22,23.69-13.54,63-46.53,57.31-14.29-1.39-26.45-11.99-33.14-24.08,.59,27.43,1.66,54.85,2.68,82.27-10.54-.81-21.12-1.44-31.69-1.84-2.56-61.5-5.41-122.9-1.9-184.43,10.79,.79,21.51,2.07,32.24,3.39-.3,6.02-.44,9.07-.68,15.27,7.63-10.51,21.03-14.34,33.52-12.44h.01Zm-10.81,28.04c-13.84-2.07-24.43,11.57-23.84,25.25,.58,13.31,7.72,31.66,23.34,33.36,15.55,1.69,22.97-13.27,23.55-26.76,.62-14.28-8.92-29.73-23.06-31.85h.01Zm77.25,62.03c10.96,1.17,21.9,2.23,32.88,3.16-8.08,23.12-15.83,46.33-23.32,69.65-8.34-.6-12.53-.94-20.93-1.69,3.52-23.75,7.26-47.46,11.37-71.12ZM508.18,26.96c9.64,1.76,14.18,2.82,23.26,4.96,5.15,23.08,11.34,43.23,11.2,67.1-.15,24.93-.28,49.85-.65,74.78-10.3,.02-20.6,.14-30.91,.05,.24-47.73,6.58-100.01-2.9-146.88h0Zm51.49,56.22c-1.66-15.49-4.52-30.82-6.48-46.27,9.54,2.02,14.38,2.98,25.41,4,.17,14.78,.01,29.35-1.03,44.09-7.62-.42-11.12-.84-17.9-1.82h0Zm169.95,66.09c3.97-13.74,11.28-41.81-4.65-49.1-14.63-6.69-25.54,20.37-30.08,30.76-13.8,35.24-29.5,69.58-45.3,103.96-11.94-3.88-17.12-5.83-26.18-9.68,17.33-34.73,34.08-69.6,48.26-105.75,2.8-9.03,11.02-35.69-3.58-37.41-13.22-1.56-19.45,17.46-23.5,28.25-11.56,35.68-28.12,69.47-44.95,102.9-6.29-3.82-6.91-7.75-10.08-14.93,10.7-27.66,23.93-55.25,29.87-84.48,4.23-20.82-.61-32.5-11.18-50.19,13.98-1.3,27.6-4.06,41.28-7.12,3.61,3.52,3.94,5.48,3.82,10.53,6.83-10.03,17.93-17.41,29.78-19.18,19.07-2.86,23.2,14.32,24.63,29.48,8.54-11.32,22.26-28.48,39-23.55,39.77,12.22,25.93,75.71,18.36,103.49-10.21,32.58-23.2,65.2-29.73,98.79-14.17-2.77-28.29-5.68-42.33-9.05,11.74-32.74,24.8-64.99,36.56-97.73h0Zm122.19,5.19c-5.77-1.87-8.65-2.86-14.36-4.9,4.51-18.86,11.08-39.04,12.12-58.5,4.07,3.37,6.1,4.99,10.17,8.08,.08-2.3,.13-3.45,.21-5.74,1.8-26.37,7.95-72.68,45.84-54.71-.51,18.06-1.08,36.13-1.71,54.19-14.97-10.02-15.33,15.48-15.99,22.34-.03,.75-.04,1.13-.07,1.88,6.14,3.06,9.22,4.37,15.44,6.45-.68,17.54-1.38,35.07-2.1,52.61-6.26-2.1-9.36-3.47-15.51-6.78-1.03,23.4-6.51,45.43-9.07,68.6-1.29,11.65-3.19,25.06,5.39,34.48-15.56-1.45-31.28-1.4-46.87-2.66-6.74-11.99-2.23-29.21,.03-41.88,4.41-24.68,10.77-49.06,16.49-73.46h-.01Zm64.53-85.1c-.3-11.04,5.51-33.05,18.51-32.03,12.85,1.01,17.16,22.77,16.48,34.23-.7,11.77-6.2,35.63-18.69,35.1-13.07-.56-15.97-25.17-16.3-37.3Zm.72,57.72c9.35,1.9,20.23,2.19,29.67,.86-1.56,48.67-5.48,98.59-2.49,147.29-9.95,1.42-20.68,1.69-30.71,.98-3.51-49.28,1.68-99.88,3.53-149.13h0Zm121.33,32.86c-.92-9.15-4.11-30.71-19.38-19.57-13.79,10.06-20.06,28.71-20.24,45.53-.25,21.54-.48,43.08-.46,64.62-10.24,6.31-20.7,12.31-31.55,17.52-.18-48.36,.76-96.74,2.02-145.07,10.91-3.97,20.75-8.34,31.13-13.56-.17,9.77-.24,14.57-.39,23.89,5.55-16.57,15.99-34.14,31.59-42.92,30.62-18.23,37.91,24.33,38.77,44.55-.26,23.82-.49,47.63-.56,71.45-10.66,6.01-21.09,12.4-31.42,18.97,.03-21.8,.24-43.6,.48-65.4h.01Zm98.35,19.26c-33.37,9.5-51.36-10.8-51.3-41.12,.06-29.42,13.09-83.86,52.38-87.57,34.03-3.21,48.31,29.06,49.96,57.56-.02,3.43-.23,7.09-.62,10.76-24.65,1.95-47.21,6.66-70.56,14.85-.34,11.05,7.73,20.79,19.22,17.07,8.46-2.74,13.73-8.71,16.34-15.79,11.13-2.07,21.84-3.56,33.1-4.62-5.25,24.62-25.15,42.21-48.52,48.87h0Zm-19.75-67.84c12.69-4.5,25.78-7.89,39.08-10.03,.55-10.82-7.52-21.24-18.93-18.56-12.53,2.95-18.86,16.66-20.15,28.59h0Zm101.13,59.48c-9.51-.15-18.65-10.32-18.32-19.71,.36-10.22,7.67-20.04,18.61-20.19,9.98-.13,18.23,11.14,18.13,20.22-.1,9-8.75,19.82-18.42,19.67h0Z"/>
</svg>